<?xml version="1.0" encoding="UTF-8" standalone="no"?>
<!-- Created with Inkscape (http://www.inkscape.org/) -->

<svg
   width="33.839867mm"
   height="34.355995mm"
   viewBox="0 0 33.839867 34.355995"
   version="1.1"
   id="svg1"
   xml:space="preserve"
   xmlns:inkscape="http://www.inkscape.org/namespaces/inkscape"
   xmlns:sodipodi="http://sodipodi.sourceforge.net/DTD/sodipodi-0.dtd"
   xmlns="http://www.w3.org/2000/svg"
   xmlns:svg="http://www.w3.org/2000/svg"><sodipodi:namedview
     id="namedview1"
     pagecolor="#ffffff"
     bordercolor="#000000"
     borderopacity="0.25"
     inkscape:showpageshadow="2"
     inkscape:pageopacity="0.0"
     inkscape:pagecheckerboard="0"
     inkscape:deskcolor="#d1d1d1"
     inkscape:document-units="mm" /><defs
     id="defs1" /><g
     inkscape:groupmode="layer"
     id="layer2"
     inkscape:label="Layer 2"
     transform="translate(-71.819254,-106.55526)"><g
       id="g1"><path
         style="fill:#1098ba;fill-opacity:1;stroke-width:0.213665"
         d="m 72.08521,108.78979 c 0,0 -1.005541,-2.40212 0.893815,-1.00554 1.899354,1.39658 4.022164,3.46353 4.022164,3.46353 l 4.804253,-4.63667 -1.061405,2.73731 4.357348,-2.79317 -5.865659,6.36843 25.194394,25.69717 1.229,2.2904 -2.17868,-1.00554 c 0,0 -24.803348,-25.41786 -28.043426,-26.19994 l -1.675901,1.11727 -0.391044,-0.50277 1.675902,-1.229 z"
         id="path1" /><path
         style="fill:#35c1dd;fill-opacity:1;stroke-width:0.193542"
         d="m 72.523019,109.259 c 0,0 -0.91443,-2.16732 0.812828,-0.90725 1.727253,1.26007 3.657717,3.12499 3.657717,3.12499 l 4.368943,-4.18346 -0.965233,2.46975 3.962531,-2.52015 -5.334174,5.74595 22.911549,23.18541 1.11763,2.06653 -1.98127,-0.90724 c 0,0 -22.555925,-22.93341 -25.502422,-23.63905 l -1.524049,1.00806 -0.355612,-0.45362 1.52405,-1.10888 z"
         id="path1-7" /><path
         style="fill:#cbf8fd;fill-opacity:1;stroke-width:0.172575"
         d="m 73.039862,109.53383 c 0,0 -0.815367,-1.93253 0.724771,-0.80897 1.540134,1.12356 3.261465,2.78645 3.261465,2.78645 l 3.895641,-3.73025 -0.860667,2.20219 3.533259,-2.24713 -4.756307,5.12347 20.429468,20.67366 0.996558,1.84266 -1.766637,-0.80896 c 0,0 -20.11237,-20.44896 -22.739663,-21.07815 l -1.358944,0.89885 -0.317087,-0.40448 1.358945,-0.98875 z"
         id="path1-7-8" /></g></g></svg>
